<?xml version="1.0" standalone="no"?>
<!DOCTYPE svg PUBLIC "-//W3C//DTD SVG 20010904//EN"
 "http://www.w3.org/TR/2001/REC-SVG-20010904/DTD/svg10.dtd">
<svg version="1.0" xmlns="http://www.w3.org/2000/svg"
 width="400.000000pt" height="400.000000pt" viewBox="0 0 400.000000 400.000000"
 preserveAspectRatio="xMidYMid meet">
<metadata>
Created by potrace 1.11, written by Peter Selinger 2001-2013
</metadata>
<g transform="translate(0.000000,400.000000) scale(0.100000,-0.100000)"
fill="#000000" stroke="none">
<path d="M2988 2569 c-21 -17 -35 -35 -32 -40 3 -5 1 -9 -4 -9 -11 0 -12 -23
-6 -72 4 -25 17 -49 41 -73 22 -22 36 -45 36 -61 0 -17 8 -29 27 -39 25 -13
30 -13 54 6 17 14 26 30 26 50 0 16 5 29 11 29 14 0 37 24 53 55 15 28 12 108
-4 113 -6 2 -10 10 -10 18 0 24 -61 54 -110 54 -35 -1 -53 -7 -82 -31z"/>
<path d="M2481 2213 c-24 -43 -53 -96 -65 -118 -11 -22 -24 -41 -28 -43 -5 -2
-8 -10 -8 -18 0 -9 5 -12 10 -9 10 6 50 16 79 19 7 0 18 -8 24 -19 6 -11 19
-32 29 -47 18 -27 18 -28 1 -29 -10 -1 -22 -1 -26 0 -11 2 -117 -100 -113
-108 2 -3 46 -5 98 -4 51 1 100 0 109 -3 9 -2 27 -25 40 -49 13 -25 27 -45 30
-45 4 0 10 -11 13 -25 6 -24 8 -25 101 -25 51 0 96 4 99 9 4 5 2 11 -2 13 -5
1 -29 39 -54 83 -25 44 -62 109 -83 145 -20 36 -46 81 -57 100 -11 19 -35 60
-54 91 -19 31 -34 62 -34 68 0 6 -4 11 -10 11 -5 0 -10 6 -10 13 0 6 -10 25
-23 40 l-22 28 -44 -78z"/>
<path d="M1135 2257 c-5 -7 -23 -38 -40 -70 -16 -31 -33 -57 -37 -57 -3 0 -9
-13 -13 -30 -4 -16 -11 -30 -17 -30 -6 0 -8 -3 -5 -7 4 -3 2 -12 -5 -20 -18
-22 -1 -27 40 -10 l39 16 19 -37 c11 -20 23 -40 29 -44 14 -10 -1 -21 -29 -22
-13 -1 -44 -20 -68 -42 -77 -72 -79 -69 40 -69 59 0 110 4 113 9 4 5 30 -31
59 -80 l52 -89 89 0 c49 -1 89 2 89 5 0 11 -63 124 -77 138 -7 7 -13 18 -13
23 0 5 -16 33 -35 63 -19 30 -35 57 -35 60 0 3 -18 35 -40 71 -22 36 -40 68
-40 71 0 3 -15 28 -33 57 -18 29 -39 64 -46 80 -16 30 -21 32 -36 14z"/>
<path d="M1515 2188 c4 -40 8 -130 10 -200 3 -117 6 -132 31 -179 53 -96 132
-142 244 -143 118 0 196 49 252 158 28 55 30 164 3 221 -26 54 -70 101 -125
133 -35 21 -59 27 -115 29 -38 1 -88 -3 -110 -9 -36 -10 -46 -8 -93 16 -29 15
-65 31 -79 37 l-25 9 7 -72z m367 -145 c60 -55 61 -141 2 -192 -29 -26 -43
-31 -84 -31 -43 0 -54 5 -83 34 -56 56 -56 138 1 189 42 38 123 37 164 0z"/>
<path d="M3019 2190 c-4 -17 -3 -483 1 -488 3 -4 35 -7 71 -7 l67 0 1 248 c0
189 -2 247 -12 248 -40 4 -127 3 -128 -1z"/>
<path d="M945 1799 c-23 -4 -125 -90 -125 -104 0 -2 25 -3 56 -3 53 1 58 3
105 49 27 26 49 50 49 52 0 9 -55 13 -85 6z"/>
<path d="M2298 1802 c-10 -2 -18 -8 -18 -13 0 -5 -6 -9 -14 -9 -8 0 -18 -9
-21 -20 -3 -11 -11 -20 -17 -20 -10 0 -37 -29 -38 -41 0 -3 24 -5 54 -4 50 1
56 4 98 48 25 25 49 43 53 39 4 -4 6 -1 3 7 -4 15 -62 22 -100 13z"/>
<path d="M2056 1748 c-9 -5 -16 -20 -16 -33 0 -42 60 -57 74 -18 15 38 -22 71
-58 51z"/>
</g>
</svg>
